<svg xmlns="http://www.w3.org/2000/svg" width="429.268" height="88.84" viewBox="0 0 429.268 88.84"><path d="M21.06.78C32.292.78,40.976-7.644,40.976-18.2v-.1c0-10.556-8.58-18.876-19.812-18.876S1.248-28.756,1.248-18.2v.1C1.248-7.54,9.828.78,21.06.78Zm.1-10.764c-4.68,0-7.644-3.9-7.644-8.216v-.1c0-4.264,2.912-8.112,7.54-8.112,4.68,0,7.644,3.9,7.644,8.216v.1C28.7-13.832,25.792-9.984,21.164-9.984Z" transform="translate(109 67.42)"/><path d="M2.08,0H14.248V-9.88H18.2c9.828,0,16.536-4.68,16.536-13.468v-.1c0-8.632-6.6-12.948-16.276-12.948H2.08ZM14.248-18.564v-8.112h3.328c3.224,0,5.148,1.352,5.148,4v.1c0,2.6-2.08,4-5.2,4Z" transform="translate(173 67.42)"/><path d="M2.184,0H14.352V-36.4H2.184Z" transform="translate(208 67.42)"/><path d="M11.388,0H23.556V-26.1H34.268V-36.4H.676v10.3H11.388Z" transform="translate(223 67.42)"/><path d="M2.08,0H22.256c9.2,0,13.988-4.264,13.988-10.088v-.1c0-4.992-3.016-7.488-7.7-8.84,3.9-1.352,6.5-4,6.5-8.32v-.1a7.775,7.775,0,0,0-2.236-5.668c-2.132-2.132-5.3-3.276-10.348-3.276H2.08ZM23.088-24.6c0,1.612-1.248,2.5-3.848,2.5h-5.3v-5.1h5.252c2.6,0,3.9.884,3.9,2.5Zm.936,12.636v.1c0,1.56-1.352,2.652-4,2.652H13.936v-5.408h6.136C22.724-14.612,24.024-13.52,24.024-11.96Z" transform="translate(257 67.42)"/><path d="M2.08,0H31.356V-10.4H14.248v-26H2.08Z" transform="translate(293 67.42)"/><path d="M-.572,0h13L14.3-4.888H27.04L28.964,0H42.172L26.832-36.66H14.768Zm17.94-13.52L20.7-22.36l3.328,8.84Z" transform="translate(324 67.42)"/><path d="M17.732.676C27.508.676,33.8-4,33.8-11.648v-.1c0-7.332-6.24-10.036-15.548-11.752-3.848-.728-4.836-1.352-4.836-2.34v-.1c0-.884.832-1.508,2.652-1.508a19.09,19.09,0,0,1,10.92,3.588l5.928-8.216C28.7-35.412,23.5-37.076,16.484-37.076,6.448-37.076,1.04-31.72,1.04-24.8v.1C1.04-17,8.216-14.664,16.38-13c3.9.78,5.044,1.352,5.044,2.392v.1c0,.988-.936,1.56-3.12,1.56a20.86,20.86,0,0,1-12.74-4.264L-.936-5.46C3.692-1.4,10.348.676,17.732.676Z" transform="translate(363 67.42)"/><path d="M11.388,0H23.556V-26.1H34.268V-36.4H.676v10.3H11.388Z" transform="translate(395 67.42)"/><path d="M.736-7.1H11.872l1.6-5.952H2.336Z" transform="translate(155 58.42)"/><path d="M74.528,51.189l.005,10.132L44.777,78.49v.005l0,0,0,0V78.49L15,61.351,14.99,51.219l6.553,3.741,6.517-3.73v.044l6.553,3.741,6.549-3.748.011,16.99,3.6,2.153,3.6-2.156-.011-16.99,6.553,3.741,6.549-3.748v-.044l6.521,3.723Zm-45.421-1.84,0-6.312,5.519-3.159,5.522,3.153,0,6.312L34.629,52.5Zm33.324-.017,0-6.312,5.519-3.159,5.523,3.153,0,6.312-5.519,3.159Zm-46.368,0,0-6.312,5.519-3.159L27.1,43.012l0,6.312-5.519,3.158Zm33.324-.017,0-6.312L54.9,39.842,60.425,43l0,6.312-5.519,3.159ZM22.851,36.5l0-5.2,4.51-2.6,4.513,2.6,0,5.2-4.51,2.6Zm34.044.557,0-5.572,4.833-2.788,4.835,2.784,0,5.572-4.833,2.788ZM14.981,32.924l0-3.8,3.3-1.9,3.3,1.9,0,3.8-3.3,1.9Zm53.284-2.211,0-3.609,3.13-1.806,3.132,1.8,0,3.609L71.4,32.516Zm-41.208-5.82,0-3.766,3.267-1.885,3.268,1.881,0,3.766-3.267,1.885Zm28.479-2.138,0-3.172L58.286,18l2.752,1.584,0,3.172-2.751,1.587ZM55.1,0,10.682,16.975,0,61.4,33.738,88.84l44.42-16.976L88.84,27.444Z" fill="#dd052b"/></svg>